<svg xmlns="http://www.w3.org/2000/svg" version="1.1" xmlnsXlink="http://www.w3.org/1999/xlink" xmlns:svgjs="http://svgjs.com/svgjs" width="512" height="512" x="0" y="0" viewBox="0 0 512 512" style="enable-background:new 0 0 512 512" xml:space="preserve" class=""><g><path d="M464 338.144V338a26.038 26.038 0 0 0-16-24v-34a8 8 0 0 0 8-8v-32c0-110.28-89.719-200-200-200-110.28 0-200 89.72-200 200v32a8 8 0 0 0 8 8v34a26.038 26.038 0 0 0-16 24v.145a49.918 49.918 0 0 0-32 46.647v14.416a49.92 49.92 0 0 0 32 46.647V446a26.03 26.03 0 0 0 26 26h46a8 8 0 0 0 8-8v-3.056l14.311-7.155A31.826 31.826 0 0 0 160 425.167v-66.334a31.826 31.826 0 0 0-17.689-28.622L128 323.056V320a8 8 0 0 0-8-8h-8v-32a8 8 0 0 0 8-8v-32c0-74.991 61.01-136 136-136s136 61.009 136 136v32a8 8 0 0 0 8 8v32h-8a8 8 0 0 0-8 8v3.056l-14.311 7.155A31.826 31.826 0 0 0 352 358.833v66.334a31.826 31.826 0 0 0 17.689 28.622L384 460.944V464a8 8 0 0 0 8 8h46a26.03 26.03 0 0 0 26-26v-.145a49.919 49.919 0 0 0 32-46.647v-14.416a49.917 49.917 0 0 0-32-46.648ZM48 428.063a33.948 33.948 0 0 1-16-28.855v-14.416a33.949 33.949 0 0 1 16-28.854Zm80-87.119 7.155 3.578A15.912 15.912 0 0 1 144 358.833v66.334a15.912 15.912 0 0 1-8.845 14.311L128 443.056Zm256 102.112-7.155-3.578A15.912 15.912 0 0 1 368 425.167v-66.334a15.912 15.912 0 0 1 8.845-14.311l7.155-3.578ZM112 456H96v-72a8 8 0 0 0-16 0v72h-6a10.011 10.011 0 0 1-10-10V338a10.011 10.011 0 0 1 10-10h6v24a8 8 0 0 0 16 0v-24h16ZM80 312v-32h16v32ZM256 88c-83.813 0-152 68.187-152 152v24H72v-24c0-101.458 82.542-184 184-184s184 82.542 184 184v24h-32v-24c0-83.813-68.187-152-152-152Zm176 192v32h-16v-32Zm16 64v102a10.011 10.011 0 0 1-10 10h-6v-72a8 8 0 0 0-16 0v72h-16V328h16v24a8 8 0 0 0 16 0v-24h6a10.011 10.011 0 0 1 10 10Zm32 55.208a33.95 33.95 0 0 1-16 28.857v-72.128a33.948 33.948 0 0 1 16 28.855Z" fill="#000000" data-original="#000000" class=""></path><path d="M176 384a8 8 0 0 0 8 8h24a8 8 0 0 0 7.428-5.029L223.015 368l25.339 82.351A8 8 0 0 0 256 456q.159 0 .321-.006a8 8 0 0 0 7.491-6.259l25.344-114.048 15.181 50.613A8 8 0 0 0 312 392h16a8 8 0 0 0 0-16h-10.048l-22.289-74.3a8 8 0 0 0-15.473.564L254.751 416.74l-23.105-75.093a8 8 0 0 0-15.074-.618L202.584 376H184a8 8 0 0 0-8 8ZM200 232v-24a8 8 0 0 0-16 0v24a8 8 0 0 0 16 0ZM224 264a8 8 0 0 0 8-8v-64a8 8 0 0 0-16 0v64a8 8 0 0 0 8 8ZM264 272v-96a8 8 0 0 0-16 0v96a8 8 0 0 0 16 0ZM288 264a8 8 0 0 0 8-8v-64a8 8 0 0 0-16 0v64a8 8 0 0 0 8 8ZM328 232v-24a8 8 0 0 0-16 0v24a8 8 0 0 0 16 0ZM360 224v-8a8 8 0 0 0-16 0v8a8 8 0 0 0 16 0ZM168 216a8 8 0 0 0-16 0v8a8 8 0 0 0 16 0Z" fill="#000000" data-original="#000000" class=""></path></g></svg>