<?xml version="1.0" encoding="UTF-8"?>
<svg id="Layer_2" data-name="Layer 2" xmlns="http://www.w3.org/2000/svg" xmlns:xlink="http://www.w3.org/1999/xlink" viewBox="0 0 543.37 126.24">
  <defs>
    <style>
      .cls-1 {
        fill: url(#linear-gradient-2);
      }

      .cls-2 {
        fill: url(#linear-gradient);
        fill-opacity: .2;
      }

      .cls-3 {
        fill: url(#linear-gradient-6);
      }

      .cls-4 {
        opacity: .1;
      }

      .cls-4, .cls-5, .cls-6 {
        fill: #fff;
      }

      .cls-5 {
        filter: url(#drop-shadow-1);
        opacity: .2;
      }

      .cls-6 {
        filter: url(#drop-shadow-2);
      }

      .cls-7 {
        fill: url(#linear-gradient-5);
      }

      .cls-8 {
        fill: #7f70ff;
      }

      .cls-9 {
        fill: #1d1e21;
      }

      .cls-10 {
        fill: url(#linear-gradient-3);
      }

      .cls-11 {
        fill: url(#linear-gradient-4);
      }
    </style>
    <linearGradient id="linear-gradient" x1="8.69" y1="59.62" x2="122.9" y2="59.62" gradientUnits="userSpaceOnUse">
      <stop offset="0" stopColor="#2dc7fd"/>
      <stop offset="1" stopColor="#7f70ff"/>
    </linearGradient>
    <linearGradient id="linear-gradient-2" x1="-47.66" y1="-1.28" x2="132" y2="35.32" xlink:href="#linear-gradient"/>
    <linearGradient id="linear-gradient-3" x1="-47.45" y1="-.8" x2="132.2" y2="35.8" xlink:href="#linear-gradient"/>
    <linearGradient id="linear-gradient-4" x1="-57.28" y1="47.06" x2="121.33" y2="83.45" xlink:href="#linear-gradient"/>
    <linearGradient id="linear-gradient-5" x1="-47.55" y1="-1.04" x2="132.1" y2="35.56" xlink:href="#linear-gradient"/>
    <linearGradient id="linear-gradient-6" x1="-48.09" y1="-1.69" x2="132.44" y2="35.1" xlink:href="#linear-gradient"/>
    <filter id="drop-shadow-1" filterUnits="userSpaceOnUse">
      <feOffset dx="5.54" dy="5.54"/>
      <feGaussianBlur result="blur" stdDeviation="7.92"/>
      <feFlood flood-color="#5817bf" flood-opacity=".2"/>
      <feComposite in2="blur" operator="in"/>
      <feComposite in="SourceGraphic"/>
    </filter>
    <filter id="drop-shadow-2" filterUnits="userSpaceOnUse">
      <feOffset dx="5.54" dy="5.54"/>
      <feGaussianBlur result="blur-2" stdDeviation="7.92"/>
      <feFlood flood-color="#5817bf" flood-opacity=".2"/>
      <feComposite in2="blur-2" operator="in"/>
      <feComposite in="SourceGraphic"/>
    </filter>
  </defs>
  <g id="Layer_1-2" data-name="Layer 1">
    <g>
      <g>
        <path class="cls-9" d="m198.33,69.08c3.14-1.54,5.58-3.69,7.3-6.44,1.72-2.75,2.58-6,2.58-9.75s-.86-6.83-2.58-9.61c-1.72-2.78-4.14-4.97-7.25-6.57-3.11-1.6-6.73-2.4-10.84-2.4h-24.94v63.75h12.33v-26.66h2.14l20.35,26.66h14.96l-21.32-26.89c2.67-.33,5.09-1.02,7.27-2.08Zm-23.4-24.71h11.52c3.02,0,5.36.83,7.03,2.49,1.66,1.66,2.49,3.73,2.49,6.21,0,2.72-.83,4.85-2.49,6.39-1.66,1.54-4.01,2.31-7.03,2.31h-11.52v-17.41Z"/>
        <path class="cls-9" d="m248.25,56.11c-3.23-1.9-6.97-2.86-11.2-2.86s-8.19,1.01-11.7,3.04c-3.51,2.03-6.27,4.75-8.3,8.16-2.03,3.42-3.04,7.3-3.04,11.65s1.04,8.34,3.13,11.79c2.09,3.45,4.91,6.15,8.48,8.12,3.57,1.97,7.65,2.95,12.24,2.95,3.57,0,6.88-.63,9.93-1.9,3.05-1.27,5.64-3.14,7.75-5.62l-6.98-6.98c-1.33,1.51-2.9,2.65-4.72,3.4-1.81.76-3.84,1.13-6.08,1.13-2.48,0-4.66-.53-6.53-1.59-1.87-1.06-3.31-2.57-4.31-4.53-.39-.78-.69-1.62-.93-2.51l31.98-.08c.24-1.03.41-1.95.5-2.77s.14-1.62.14-2.4c0-4.17-.92-7.9-2.77-11.2-1.84-3.29-4.38-5.89-7.62-7.8Zm-17.37,8.62c1.75-1.06,3.81-1.59,6.17-1.59,2.24,0,4.13.47,5.67,1.41,1.54.94,2.72,2.28,3.54,4.04.39.84.7,1.79.93,2.83l-21.17.06c.22-.81.48-1.59.83-2.3.94-1.9,2.28-3.38,4.04-4.44Z"/>
        <path class="cls-9" d="m297.31,56.11c-3.23-1.9-6.97-2.86-11.2-2.86s-8.19,1.01-11.7,3.04c-3.51,2.03-6.27,4.75-8.3,8.16-2.03,3.42-3.04,7.3-3.04,11.65s1.04,8.34,3.13,11.79c2.09,3.45,4.91,6.15,8.48,8.12,3.57,1.97,7.65,2.95,12.24,2.95,3.57,0,6.88-.63,9.93-1.9,3.05-1.27,5.64-3.14,7.75-5.62l-6.98-6.98c-1.33,1.51-2.9,2.65-4.72,3.4-1.81.76-3.84,1.13-6.08,1.13-2.48,0-4.66-.53-6.53-1.59-1.88-1.06-3.31-2.57-4.31-4.53-.39-.78-.69-1.62-.93-2.51l31.99-.08c.24-1.03.41-1.95.5-2.77s.14-1.62.14-2.4c0-4.17-.92-7.9-2.77-11.2-1.84-3.29-4.38-5.89-7.62-7.8Zm-17.37,8.62c1.75-1.06,3.81-1.59,6.17-1.59,2.24,0,4.13.47,5.67,1.41,1.54.94,2.72,2.28,3.54,4.04.39.84.7,1.79.93,2.83l-21.17.06c.22-.81.48-1.59.83-2.3.94-1.9,2.28-3.38,4.04-4.44Z"/>
        <rect class="cls-9" x="315.03" y="32.49" width="11.88" height="65.56"/>
        <polygon class="cls-9" points="335.98 64.59 354.84 64.59 334.35 91.25 334.35 98.05 371.35 98.05 371.35 87.71 351.39 87.71 371.89 61.05 371.89 54.25 335.98 54.25 335.98 64.59"/>
        <path class="cls-8" d="m401.91,34.3l-25.66,63.75h12.88l4.55-11.88h26.24l4.49,11.88h13.15l-25.57-63.75h-10.07Zm-4.28,41.53l9.25-24.15,9.12,24.15h-18.37Z"/>
        <path class="cls-8" d="m479.71,56.34c-3.21-2-6.83-2.99-10.88-2.99-3.14,0-5.97.67-8.48,2-1.49.79-2.79,1.77-3.95,2.89v-3.98h-11.88v62.12h11.79v-22.22c1.15,1.12,2.47,2.08,3.99,2.86,2.54,1.3,5.38,1.95,8.52,1.95,4.05,0,7.68-1,10.88-2.99,3.2-2,5.73-4.72,7.57-8.16,1.84-3.45,2.77-7.31,2.77-11.61s-.92-8.25-2.77-11.7c-1.84-3.45-4.37-6.17-7.57-8.16Zm-3.22,25.98c-.94,1.78-2.25,3.17-3.95,4.17-1.69,1-3.63,1.5-5.8,1.5s-4.1-.5-5.76-1.5c-1.66-1-2.96-2.39-3.9-4.17-.94-1.78-1.41-3.85-1.41-6.21s.47-4.34,1.41-6.12c.94-1.78,2.25-3.17,3.94-4.17,1.69-1,3.6-1.5,5.71-1.5s4.11.5,5.8,1.5c1.69,1,3.01,2.39,3.95,4.17.94,1.78,1.41,3.82,1.41,6.12s-.47,4.43-1.41,6.21Z"/>
        <path class="cls-8" d="m540.61,64.5c-1.85-3.45-4.37-6.17-7.57-8.16-3.21-2-6.83-2.99-10.88-2.99-3.14,0-5.97.67-8.48,2-1.49.79-2.79,1.77-3.94,2.89v-3.98h-11.88v62.12h11.79v-22.22c1.15,1.12,2.47,2.08,3.99,2.86,2.54,1.3,5.38,1.95,8.52,1.95,4.05,0,7.68-1,10.88-2.99,3.2-2,5.73-4.72,7.57-8.16,1.84-3.45,2.77-7.31,2.77-11.61s-.92-8.25-2.77-11.7Zm-10.79,17.82c-.94,1.78-2.25,3.17-3.94,4.17-1.69,1-3.63,1.5-5.8,1.5s-4.1-.5-5.76-1.5c-1.66-1-2.96-2.39-3.9-4.17-.94-1.78-1.41-3.85-1.41-6.21s.47-4.34,1.41-6.12c.94-1.78,2.25-3.17,3.95-4.17,1.69-1,3.6-1.5,5.71-1.5s4.11.5,5.8,1.5c1.69,1,3.01,2.39,3.94,4.17.94,1.78,1.41,3.82,1.41,6.12s-.47,4.43-1.41,6.21Z"/>
      </g>
      <g>
        <circle class="cls-2" cx="65.8" cy="59.62" r="57.11"/>
        <g>
          <path class="cls-1" d="m29.31,6.58l-3.74,14.74c-.2.79.32,1.59,1.12,1.72l14.7,2.46c.72.12,1.41-.33,1.59-1.04l3.41-13.43c.19-.74-.26-1.5-1-1.7l-14.36-3.78c-.75-.2-1.52.26-1.71,1.01Z"/>
          <path class="cls-10" d="m68.04,16.77l-2.84,11.2c-.2.79.32,1.59,1.12,1.72l14.7,2.46c.72.12,1.41-.33,1.59-1.04l2.51-9.89c.19-.74-.26-1.5-1-1.7l-14.36-3.78c-.75-.2-1.52.26-1.71,1.01Z"/>
          <path class="cls-11" d="m122.53,29.64l-33.42-8.79c-.75-.2-1.52.26-1.71,1.01l-2.39,9.43c-.2.79.32,1.59,1.12,1.72l28.81,5.53c.36.07.28.6-.09.56L18.87,27.67c-5.49-.58-9.59,4.94-7.45,10.03l33.54,80.03c3.97,9.48,16.51,11.49,23.25,3.74l61-70.18c6.49-7.46,2.89-19.14-6.67-21.65Z"/>
          <path class="cls-7" d="m64.75,14.44l-14.36-3.78c-.75-.2-1.52.26-1.71,1.01l-3.29,12.97c-.2.79.32,1.59,1.12,1.72l14.7,2.46c.72.12,1.41-.33,1.59-1.04l2.96-11.66c.19-.74-.26-1.5-1-1.7Z"/>
          <path class="cls-3" d="m23.17,21.16l3.86-15.2c.19-.74-.26-1.5-1-1.7L10.97.3C3.97-1.54-2.1,5.44.7,12.12h0c1.84,4.4,5.82,7.55,10.52,8.34l10.36,1.74c.72.12,1.41-.33,1.59-1.04Z"/>
        </g>
        <path class="cls-5" d="m45.77,55.79l5.82,31.55c.58,3.15,4.44,4.38,6.74,2.16l20.6-19.93c2.05-1.98,1.44-5.41-1.18-6.56l-26.43-11.62c-2.95-1.3-6.15,1.23-5.56,4.4Z"/>
        <path class="cls-6" d="m53.06,52.62v32.08c0,3.2,3.57,5.12,6.23,3.34l23.88-15.86c2.38-1.58,2.39-5.06.04-6.66l-23.88-16.22c-2.67-1.81-6.27.1-6.27,3.32Z"/>
        <path class="cls-4" d="m44.95,117.73c3.97,9.48,16.51,11.49,23.25,3.74l61-70.18c6.49-7.46,2.89-19.14-6.67-21.65l-33.42-8.79c-.75-.2-1.52.26-1.71,1.01l32.3,12.59s13.78,4.61-2.26,20.46c-16.8,16.6-72.5,62.83-72.5,62.83Z"/>
      </g>
    </g>
  </g>
</svg>